<svg width="48" height="48" viewBox="0 0 48 48" fill="none" xmlns="http://www.w3.org/2000/svg">
<rect x="1.5" y="1.5" width="45" height="45" rx="22.5" stroke="#161616" stroke-width="3"/>
<path d="M37.3332 16C37.3332 17.3334 35.9998 20 30.6665 20C25.3332 20 23.9998 17.3334 23.9998 16C23.9998 17.3334 22.6665 20 17.3332 20C11.9998 20 10.6665 17.3334 10.6665 16M21.3332 12.6667C20.8892 12 19.3332 10.6667 17.3332 10.6667M26.6665 12.6667C27.1105 12 28.6665 10.6667 30.6665 10.6667M13.3332 20V21.3334C13.3332 23.0934 13.6878 24.8267 14.0798 26.5334C14.7998 29.6614 15.1598 34.1067 13.3332 37.3334M34.6665 20V21.3334C34.6665 23.0934 34.3118 24.8267 33.9198 26.5334C33.1998 29.6614 32.8398 34.1067 34.6665 37.3334M29.3332 33.3334C27.3532 34.9054 26.1918 35.1587 24.4305 33.7094C24.3072 33.6067 24.1531 33.5482 23.9927 33.5431C23.8323 33.538 23.6748 33.5867 23.5452 33.6814C21.6852 35.04 20.5332 35.0534 18.6665 33.3334M29.3332 26.6667C27.3532 28.2387 26.1918 28.492 24.4305 27.0427C24.3072 26.94 24.1531 26.8815 23.9927 26.8764C23.8323 26.8714 23.6748 26.92 23.5452 27.0147C21.6852 28.3734 20.5332 28.3867 18.6665 26.6667M23.9998 26.6667V24" stroke="#D63D1C" stroke-width="3" stroke-linecap="round" stroke-linejoin="round"/>
</svg>
