<svg width="32" height="32" viewBox="0 0 32 32" fill="none" xmlns="http://www.w3.org/2000/svg">
<path fill-rule="evenodd" clip-rule="evenodd" d="M8.5975 2.33325C7.40016 2.33325 6.40016 2.33325 5.60816 2.43992C4.77083 2.55192 4.01483 2.79992 3.40816 3.40659C2.80016 4.01459 2.55216 4.77059 2.44016 5.60659C2.3335 6.39992 2.3335 7.39992 2.3335 8.59725V8.73592C2.3335 9.93325 2.3335 10.9333 2.44016 11.7253C2.55216 12.5626 2.80016 13.3186 3.40683 13.9253C4.01483 14.5333 4.77083 14.7813 5.60683 14.8933C6.40016 14.9999 7.40016 14.9999 8.5975 14.9999H8.73616C9.9335 14.9999 10.9335 14.9999 11.7255 14.8933C12.5628 14.7813 13.3188 14.5333 13.9255 13.9253C14.5335 13.3186 14.7815 12.5626 14.8935 11.7253C15.0002 10.9333 15.0002 9.93325 15.0002 8.73592V8.59725C15.0002 7.39992 15.0002 6.39992 14.8935 5.60792C14.7815 4.77059 14.5335 4.01459 13.9255 3.40792C13.3188 2.79992 12.5628 2.55192 11.7255 2.43992C10.9335 2.33325 9.9335 2.33325 8.73616 2.33325H8.5975ZM4.8215 4.82125C4.99483 4.64792 5.25883 4.50525 5.87483 4.42125C6.5175 4.33592 7.3815 4.33325 8.66683 4.33325C9.95216 4.33325 10.8162 4.33592 11.4602 4.42259C12.0748 4.50525 12.3388 4.64792 12.5122 4.82259C12.6855 4.99725 12.8282 5.25859 12.9122 5.87325C12.9975 6.51725 13.0002 7.38125 13.0002 8.66659C13.0002 9.95192 12.9975 10.8159 12.9108 11.4599C12.8282 12.0746 12.6855 12.3386 12.5108 12.5119C12.3362 12.6853 12.0748 12.8279 11.4602 12.9119C10.8162 12.9973 9.95216 12.9999 8.66683 12.9999C7.3815 12.9999 6.5175 12.9973 5.8735 12.9106C5.25883 12.8279 4.99483 12.6853 4.8215 12.5106C4.64816 12.3359 4.5055 12.0746 4.4215 11.4599C4.3375 10.8159 4.3335 9.95192 4.3335 8.66659C4.3335 7.38125 4.33616 6.51725 4.42283 5.87325C4.5055 5.25859 4.64816 4.99459 4.82283 4.82125" fill="white"/>
<path d="M24.3335 4.66675C24.3335 4.40153 24.2281 4.14718 24.0406 3.95964C23.8531 3.7721 23.5987 3.66675 23.3335 3.66675C23.0683 3.66675 22.8139 3.7721 22.6264 3.95964C22.4389 4.14718 22.3335 4.40153 22.3335 4.66675V7.66675H19.3335C19.0683 7.66675 18.8139 7.7721 18.6264 7.95964C18.4389 8.14718 18.3335 8.40153 18.3335 8.66675C18.3335 8.93196 18.4389 9.18632 18.6264 9.37386C18.8139 9.56139 19.0683 9.66675 19.3335 9.66675H22.3335V12.6667C22.3335 12.932 22.4389 13.1863 22.6264 13.3739C22.8139 13.5614 23.0683 13.6667 23.3335 13.6667C23.5987 13.6667 23.8531 13.5614 24.0406 13.3739C24.2281 13.1863 24.3335 12.932 24.3335 12.6667V9.66675H27.3335C27.5987 9.66675 27.8531 9.56139 28.0406 9.37386C28.2281 9.18632 28.3335 8.93196 28.3335 8.66675C28.3335 8.40153 28.2281 8.14718 28.0406 7.95964C27.8531 7.7721 27.5987 7.66675 27.3335 7.66675H24.3335V4.66675Z" fill="white"/>
<path fill-rule="evenodd" clip-rule="evenodd" d="M23.2642 17H23.4028C24.6015 17 25.6002 17 26.3922 17.1067C27.2295 17.2187 27.9855 17.4667 28.5922 18.0747C29.2002 18.6813 29.4482 19.4373 29.5602 20.2747C29.6668 21.0667 29.6668 22.0653 29.6668 23.264V23.4027C29.6668 24.6013 29.6668 25.6 29.5602 26.392C29.4482 27.2293 29.2002 27.9853 28.5922 28.592C27.9855 29.2 27.2295 29.448 26.3922 29.56C25.6002 29.6667 24.6015 29.6667 23.4028 29.6667H23.2642C22.0668 29.6667 21.0668 29.6667 20.2748 29.56C19.4375 29.448 18.6815 29.2 18.0748 28.592C17.4668 27.9853 17.2188 27.2293 17.1068 26.392C17.0002 25.6 17.0002 24.6013 17.0002 23.4027V23.264C17.0002 22.0653 17.0002 21.0667 17.1068 20.2747C17.2188 19.4373 17.4668 18.6813 18.0748 18.0747C18.6815 17.4667 19.4375 17.2187 20.2748 17.1067C21.0668 17 22.0655 17 23.2642 17ZM20.5402 19.088C19.9255 19.172 19.6615 19.3147 19.4882 19.488C19.3148 19.6613 19.1722 19.9253 19.0882 20.5413C19.0028 21.184 19.0002 22.048 19.0002 23.3333C19.0002 24.6187 19.0028 25.4827 19.0882 26.1267C19.1722 26.7413 19.3148 27.0053 19.4882 27.1787C19.6615 27.352 19.9255 27.4947 20.5415 27.5787C21.1842 27.664 22.0482 27.6667 23.3335 27.6667C24.6188 27.6667 25.4828 27.664 26.1268 27.5773C26.7415 27.4947 27.0055 27.352 27.1788 27.1773C27.3522 27.0027 27.4948 26.7413 27.5788 26.1267C27.6642 25.4827 27.6668 24.6187 27.6668 23.3333C27.6668 22.048 27.6642 21.184 27.5775 20.54C27.4948 19.9253 27.3522 19.6613 27.1775 19.488C27.0028 19.3147 26.7415 19.172 26.1268 19.088C25.4828 19.0027 24.6188 19 23.3335 19C22.0482 19 21.1842 19.0027 20.5402 19.088ZM8.5975 17C7.40016 17 6.40016 17 5.60816 17.1067C4.77083 17.2187 4.01483 17.4667 3.40816 18.0747C2.80016 18.6813 2.55216 19.4373 2.44016 20.2747C2.3335 21.0667 2.3335 22.0653 2.3335 23.264V23.4027C2.3335 24.6013 2.3335 25.6 2.44016 26.392C2.55216 27.2293 2.80016 27.9853 3.40683 28.592C4.01483 29.2 4.77083 29.448 5.60683 29.56C6.40016 29.6667 7.40016 29.6667 8.5975 29.6667H8.73616C9.9335 29.6667 10.9335 29.6667 11.7255 29.56C12.5628 29.448 13.3188 29.2 13.9255 28.592C14.5335 27.9853 14.7815 27.2293 14.8935 26.392C15.0002 25.6 15.0002 24.6013 15.0002 23.4027V23.264C15.0002 22.0653 15.0002 21.0667 14.8935 20.2747C14.7815 19.4373 14.5335 18.6813 13.9255 18.0747C13.3188 17.4667 12.5628 17.2187 11.7255 17.1067C10.9335 17 9.9335 17 8.73616 17H8.5975ZM4.8215 19.488C4.99483 19.3147 5.25883 19.172 5.87483 19.088C6.5175 19.0027 7.3815 19 8.66683 19C9.95216 19 10.8162 19.0027 11.4602 19.088C12.0748 19.172 12.3388 19.3147 12.5122 19.488C12.6855 19.6613 12.8282 19.9253 12.9122 20.5413C12.9975 21.184 13.0002 22.048 13.0002 23.3333C13.0002 24.6187 12.9975 25.4827 12.9108 26.1267C12.8282 26.7413 12.6855 27.0053 12.5108 27.1787C12.3362 27.352 12.0748 27.4947 11.4602 27.5787C10.8162 27.664 9.95216 27.6667 8.66683 27.6667C7.3815 27.6667 6.5175 27.664 5.8735 27.5773C5.25883 27.4947 4.99483 27.352 4.8215 27.1773C4.64816 27.0027 4.5055 26.7413 4.4215 26.1267C4.33616 25.4827 4.3335 24.6187 4.3335 23.3333C4.3335 22.048 4.33616 21.184 4.42283 20.54C4.5055 19.9253 4.64816 19.6613 4.82283 19.488" fill="white"/>
</svg>
