<svg width="48" height="48" viewBox="0 0 48 48" fill="none" xmlns="http://www.w3.org/2000/svg">
<rect x="1.5" y="1.5" width="45" height="45" rx="22.5" stroke="#161616" stroke-width="3"/>
<path d="M24.5454 25.356C25.1532 23.9472 26.2283 22.7912 27.5894 22.0829C28.9504 21.3747 30.5141 21.1576 32.0166 21.4682C33.5191 21.7789 34.8685 22.5983 35.8371 23.7882C36.8057 24.9781 37.3342 26.4657 37.3335 28C37.3335 33.1547 32.0001 37.3334 25.3334 37.3334C19.8974 37.3334 14.4628 36.24 11.5054 34.0507C10.9374 33.6294 10.6641 32.9414 10.6788 32.2347C10.8241 24.964 11.5028 10.6667 21.3334 10.6667C22.3943 10.6667 23.4117 11.0881 24.1619 11.8383C24.912 12.5884 25.3334 13.6058 25.3334 14.6667C25.3334 15.3739 25.0525 16.0522 24.5524 16.5523C24.0523 17.0524 23.374 17.3334 22.6668 17.3334C21.1934 17.3334 20.4801 16.7414 20.0001 16" stroke="#D63D1C" stroke-width="3" stroke-linecap="round" stroke-linejoin="round"/>
<path d="M28.0002 26.6667C27.1955 26.0628 26.2646 25.6489 25.2772 25.456C24.2898 25.2631 23.2716 25.2961 22.2988 25.5527C21.326 25.8092 20.4239 26.2826 19.66 26.9373C18.8962 27.5921 18.2904 28.4112 17.8882 29.3333" stroke="#D63D1C" stroke-width="3" stroke-linecap="round" stroke-linejoin="round"/>
<path d="M21.2857 17.1C18.6923 18.636 20.667 25.3334 18.667 28" stroke="#D63D1C" stroke-width="3" stroke-linecap="round" stroke-linejoin="round"/>
</svg>
