<svg width="20" height="20" viewBox="0 0 20 20" fill="none" xmlns="http://www.w3.org/2000/svg">
<g clip-path="url(#clip0_163_5339)">
<path fill-rule="evenodd" clip-rule="evenodd" d="M9.41098 6.91086C9.56726 6.75463 9.77918 6.66687 10.0002 6.66687C10.2211 6.66687 10.433 6.75463 10.5893 6.91086L15.3035 11.625C15.4553 11.7822 15.5393 11.9927 15.5374 12.2112C15.5355 12.4297 15.4478 12.6387 15.2933 12.7932C15.1388 12.9477 14.9298 13.0354 14.7113 13.0373C14.4928 13.0392 14.2823 12.9552 14.1252 12.8034L10.0002 8.67836L5.87515 12.8034C5.71798 12.9552 5.50748 13.0392 5.28898 13.0373C5.07049 13.0354 4.86147 12.9477 4.70697 12.7932C4.55246 12.6387 4.46482 12.4297 4.46292 12.2112C4.46102 11.9927 4.54502 11.7822 4.69682 11.625L9.41098 6.91086Z" fill="white"/>
</g>
<defs>
<clipPath id="clip0_163_5339">
<rect width="20" height="20" fill="white"/>
</clipPath>
</defs>
</svg>
