<svg width="48" height="48" viewBox="0 0 48 48" fill="none" xmlns="http://www.w3.org/2000/svg">
<rect x="1.5" y="1.5" width="45" height="45" rx="22.5" stroke="#161616" stroke-width="3"/>
<path d="M19.8181 12.6667L19.3372 17.3117C19.2317 18.3311 18.3655 19.0941 17.361 19.2971C15.5992 19.6532 13.8851 20.4438 12.6324 21.1301C11.378 21.8173 10.7565 23.2183 10.9025 24.6411L11.9998 35.3334M16.6665 29.3334C16.6665 30.6667 16.6665 32 17.3332 35.3334M27.8181 12.6667L28.2991 17.3117C28.4046 18.3311 29.27 19.0961 30.2757 19.293C32.0918 19.6485 33.9109 20.4476 35.2474 21.1384C36.5644 21.8192 37.2385 23.2642 37.0871 24.739L35.9998 35.3334M31.3332 29.3334C31.3332 30.6667 31.3332 32 30.6665 35.3334" stroke="#D63D1C" stroke-width="3" stroke-linecap="round" stroke-linejoin="round"/>
</svg>
