<svg width="48" height="48" viewBox="0 0 48 48" fill="none" xmlns="http://www.w3.org/2000/svg">
<rect x="1.5" y="1.5" width="45" height="45" rx="22.5" stroke="#161616" stroke-width="3"/>
<path d="M32.6667 30.6666C30.8258 30.6667 29.3334 32.1591 29.3333 34C29.3333 35.841 30.8257 37.3333 32.6666 37.3333C34.5076 37.3333 36 35.8408 36 33.9999C36 32.159 34.5077 30.6666 32.6667 30.6666ZM32.6667 30.6666L32.6667 20.6666L36.6667 16.6666M34.666 20.6673C29.3327 20.6673 23.9994 20 23.333 14.6667C19.9994 15.3334 16.6678 18.0014 17.3337 20.6673C17.9996 23.3332 29.9995 21.4002 22.6661 29.3339M24 18C24 18 20.6667 20.6666 19.3333 23.3333C18 26 18 32.6666 18 32.6666M32.6667 33.9999C32.6667 33.9999 17.1742 37.3333 15.3333 37.3333C13.4923 37.3333 12 35.841 12 34C12 32.1591 13.4925 30.6667 15.3334 30.6666C17.1744 30.6666 32.6667 33.9999 32.6667 33.9999ZM31.9999 13.9999C31.9999 15.4726 30.806 16.6666 29.3332 16.6666C27.8605 16.6666 26.6666 15.4727 26.6666 14C26.6666 12.5272 27.8606 11.3333 29.3333 11.3333C30.8061 11.3332 32 12.5271 31.9999 13.9999Z" stroke="#D63D1C" stroke-width="3" stroke-linecap="round" stroke-linejoin="round"/>
</svg>
