<svg width="48" height="48" viewBox="0 0 48 48" fill="none" xmlns="http://www.w3.org/2000/svg">
<rect x="1.5" y="1.5" width="45" height="45" rx="22.5" stroke="#161616" stroke-width="3"/>
<path d="M19.3313 10.3333V13.766C19.3313 14.9326 18.6887 15.3826 16.268 16.0046C13.848 16.626 13.1307 16.9926 12.5653 18.0666C12.1884 18.7822 12 19.8871 12 21.3813V33" stroke="#D63D1C" stroke-width="3" stroke-linecap="round"/>
<path d="M31.2945 22.3393C31.4527 24.2566 31.1276 25.9315 30.3191 27.364C29.5107 28.7964 28.0836 29.6688 26.0378 29.9813M16.7058 22.3393C16.5462 24.2566 16.8727 25.9315 17.6851 27.364C18.4971 28.796 19.9358 29.6684 22.0011 29.9813" stroke="#D63D1C" stroke-width="3" stroke-linecap="round" stroke-linejoin="round"/>
<path d="M16.6665 37.008C17.5554 35.9711 17.9998 34.844 17.9998 33.6266V28.0506M31.3332 37.008C30.4443 35.9711 29.9998 34.844 29.9998 33.6266V28.0506M28.6665 10.3333V13.766C28.6665 14.9326 29.3092 15.3826 31.7298 16.0046C34.1498 16.626 34.8672 16.9926 35.4325 18.0666C35.8094 18.7822 35.9978 19.8871 35.9978 21.3813V33" stroke="#D63D1C" stroke-width="3" stroke-linecap="round"/>
</svg>
