<svg width="20" height="20" viewBox="0 0 20 20" fill="none" xmlns="http://www.w3.org/2000/svg">
<rect x="0.5" y="0.5" width="19" height="19" rx="9.5" fill="#D63D1C"/>
<rect x="0.5" y="0.5" width="19" height="19" rx="9.5" stroke="#D63D1C"/>
<path d="M7.49988 13.5L4.58322 10.5833C4.50695 10.5061 4.41611 10.4448 4.31598 10.403C4.21585 10.3612 4.10841 10.3396 3.99988 10.3396C3.89136 10.3396 3.78392 10.3612 3.68379 10.403C3.58365 10.4448 3.49282 10.5061 3.41655 10.5833C3.33935 10.6596 3.27806 10.7504 3.23623 10.8506C3.19439 10.9507 3.17285 11.0581 3.17285 11.1667C3.17285 11.2752 3.19439 11.3826 3.23623 11.4827C3.27806 11.5829 3.33935 11.6737 3.41655 11.75L6.90822 15.2417C7.23322 15.5667 7.75822 15.5667 8.08322 15.2417L16.9166 6.41665C16.9938 6.34038 17.055 6.24955 17.0969 6.14942C17.1387 6.04928 17.1603 5.94184 17.1603 5.83332C17.1603 5.7248 17.1387 5.61736 17.0969 5.51722C17.055 5.41709 16.9938 5.32626 16.9166 5.24999C16.8403 5.17279 16.7494 5.11149 16.6493 5.06966C16.5492 5.02783 16.4417 5.00629 16.3332 5.00629C16.2247 5.00629 16.1173 5.02783 16.0171 5.06966C15.917 5.11149 15.8262 5.17279 15.7499 5.24999L7.49988 13.5Z" fill="white"/>
</svg>
