<svg width="20" height="20" viewBox="0 0 20 20" fill="none" xmlns="http://www.w3.org/2000/svg">
<path d="M13.3333 2.5C13.5374 2.50003 13.7344 2.57496 13.887 2.7106C14.0395 2.84623 14.137 3.03312 14.1608 3.23583L14.1667 3.33333V4.16667H15.8333C16.2538 4.16653 16.6588 4.32534 16.9671 4.61125C17.2754 4.89716 17.4643 5.28904 17.4958 5.70833L17.5 5.83333V15.8333C17.5001 16.2538 17.3413 16.6588 17.0554 16.9671C16.7695 17.2754 16.3776 17.4643 15.9583 17.4958L15.8333 17.5H4.16667C3.74619 17.5001 3.34119 17.3413 3.03288 17.0554C2.72456 16.7695 2.5357 16.3776 2.50417 15.9583L2.5 15.8333V5.83333C2.49987 5.41285 2.65867 5.00786 2.94458 4.69954C3.23049 4.39123 3.62237 4.20237 4.04167 4.17083L4.16667 4.16667H5.83333V3.33333C5.83357 3.12093 5.9149 2.91664 6.06071 2.76219C6.20651 2.60775 6.40579 2.5148 6.61783 2.50236C6.82986 2.48991 7.03865 2.5589 7.20153 2.69522C7.3644 2.83155 7.46908 3.02492 7.49417 3.23583L7.5 3.33333V4.16667H12.5V3.33333C12.5 3.11232 12.5878 2.90036 12.7441 2.74408C12.9004 2.5878 13.1123 2.5 13.3333 2.5ZM15.8333 10H4.16667V15.8333H15.8333V10ZM15.8333 5.83333H4.16667V8.33333H15.8333V5.83333Z" fill="#D63D1C"/>
</svg>
