<svg width="24" height="24" viewBox="0 0 24 24" fill="none" xmlns="http://www.w3.org/2000/svg">
<path fill-rule="evenodd" clip-rule="evenodd" d="M10.9749 3.00204C11.0335 3.26062 10.9869 3.53187 10.8455 3.75614C10.7041 3.98042 10.4795 4.13936 10.2209 4.19804C10.0247 4.24269 9.83022 4.29473 9.63792 4.35404C9.51244 4.39278 9.38056 4.40643 9.24981 4.3942C9.11906 4.38197 8.992 4.34411 8.87588 4.28278C8.75976 4.22145 8.65686 4.13784 8.57305 4.03674C8.48924 3.93564 8.42616 3.81902 8.38742 3.69354C8.34868 3.56806 8.33504 3.43618 8.34726 3.30543C8.35949 3.17468 8.39735 3.04762 8.45869 2.9315C8.52002 2.81538 8.60362 2.71248 8.70472 2.62867C8.80583 2.54486 8.92244 2.48178 9.04792 2.44304C9.28792 2.36837 9.53126 2.30337 9.77792 2.24804C9.90603 2.21891 10.0386 2.2153 10.1681 2.23743C10.2976 2.25956 10.4215 2.307 10.5327 2.37702C10.6438 2.44704 10.7401 2.53828 10.816 2.64552C10.8919 2.75277 10.9459 2.87391 10.9749 3.00204ZM13.0249 3.00204C13.0836 2.74349 13.2425 2.51883 13.4668 2.37743C13.6911 2.23604 13.9623 2.1895 14.2209 2.24804C18.6749 3.25804 22.0009 7.24004 22.0009 12C22.0009 17.523 17.5229 22 12.0009 22C7.23992 22 3.25792 18.675 2.24792 14.221C2.19608 13.965 2.24647 13.6989 2.38832 13.4795C2.53017 13.2602 2.75222 13.1051 3.00697 13.0473C3.26172 12.9896 3.52896 13.0338 3.75152 13.1705C3.97408 13.3073 4.13431 13.5257 4.19792 13.779C4.51614 15.1728 5.20202 16.4558 6.18422 17.4946C7.16642 18.5334 8.40904 19.29 9.7828 19.6858C11.1566 20.0815 12.6113 20.1018 13.9956 19.7447C15.3799 19.3876 16.6432 18.6661 17.6541 17.6552C18.665 16.6443 19.3865 15.381 19.7436 13.9967C20.1007 12.6124 20.0804 11.1577 19.6846 9.78392C19.2889 8.41016 18.5323 7.16754 17.4935 6.18534C16.4547 5.20314 15.1717 4.51726 13.7779 4.19904C13.5193 4.14015 13.2947 3.98096 13.1535 3.75648C13.0123 3.532 12.9661 3.26063 13.0249 3.00204ZM6.61392 4.72004C6.70335 4.81633 6.77293 4.9293 6.81867 5.0525C6.86441 5.1757 6.88542 5.3067 6.8805 5.43803C6.87558 5.56935 6.84482 5.69841 6.78998 5.81784C6.73515 5.93727 6.65731 6.04472 6.56092 6.13404C6.41292 6.27071 6.27059 6.41271 6.13392 6.56004C5.95226 6.74906 5.70364 6.85919 5.44159 6.8667C5.17953 6.87422 4.92501 6.77852 4.73281 6.60023C4.54062 6.42193 4.42612 6.17529 4.41399 5.9134C4.40185 5.65152 4.49304 5.39535 4.66792 5.20004C4.83792 5.01604 5.01526 4.83837 5.19992 4.66704C5.29621 4.57761 5.40919 4.50803 5.53238 4.46229C5.65558 4.41655 5.78659 4.39554 5.91791 4.40046C6.04923 4.40539 6.1783 4.43614 6.29772 4.49098C6.41715 4.54581 6.5246 4.62365 6.61392 4.72004ZM11.9999 6.00004C12.2651 6.00004 12.5195 6.1054 12.707 6.29293C12.8946 6.48047 12.9999 6.73482 12.9999 7.00004V11.586L15.7069 14.293C15.8891 14.4816 15.9899 14.7342 15.9876 14.9964C15.9853 15.2586 15.8801 15.5095 15.6947 15.6949C15.5093 15.8803 15.2585 15.9854 14.9963 15.9877C14.7341 15.99 14.4815 15.8892 14.2929 15.707L11.2929 12.707C11.1054 12.5195 11 12.2652 10.9999 12V7.00004C10.9999 6.73482 11.1053 6.48047 11.2928 6.29293C11.4804 6.1054 11.7347 6.00004 11.9999 6.00004ZM3.69292 8.38804C3.94631 8.46618 4.1583 8.64176 4.28225 8.87617C4.40621 9.11058 4.43199 9.38463 4.35392 9.63804C4.29461 9.83034 4.24257 10.0248 4.19792 10.221C4.13431 10.4744 3.97408 10.6928 3.75152 10.8295C3.52896 10.9663 3.26172 11.0105 3.00697 10.9528C2.75222 10.895 2.53017 10.7399 2.38832 10.5205C2.24647 10.3012 2.19608 10.0351 2.24792 9.77904C2.30392 9.53237 2.36892 9.28904 2.44292 9.04904C2.52106 8.79565 2.69664 8.58367 2.93105 8.45971C3.16546 8.33575 3.43951 8.30997 3.69292 8.38804Z" fill="#D63D1C"/>
</svg>
