<svg width="48" height="48" viewBox="0 0 48 48" fill="none" xmlns="http://www.w3.org/2000/svg">
<rect x="1.5" y="1.5" width="45" height="45" rx="22.5" stroke="#161616" stroke-width="3"/>
<path d="M35.9137 23.9984C32.7961 22.1984 24.0667 17.5758 22.6667 20.0007C21.5467 21.9406 23.3332 29.3334 28.6665 37.3334H25.9998M25.9998 20C27.4629 25.4657 29.3335 28 22.6659 26.6667C15.9982 25.3334 15.9998 24.6667 18.6664 34H15.9998M22.6665 19.9994C18.69 22.7512 15.9998 18.9997 14.6665 14M27.3332 13.3333C27.3331 14.8061 26.1392 16 24.6665 16C23.1937 16.0001 21.9998 14.8062 21.9998 13.3334C21.9999 11.8606 23.1938 10.6667 24.6666 10.6667C26.1393 10.6667 27.3332 11.8605 27.3332 13.3333Z" stroke="#D63D1C" stroke-width="3" stroke-linecap="round" stroke-linejoin="round"/>
</svg>
