<svg width="48" height="48" viewBox="0 0 48 48" fill="none" xmlns="http://www.w3.org/2000/svg">
<rect x="1.5" y="1.5" width="45" height="45" rx="22.5" stroke="#161616" stroke-width="3"/>
<path d="M13.3332 23.3333V18.7869C13.3332 15.2428 15.8944 12.201 19.3813 11.567C21.0279 11.2676 22.6314 11.5438 23.9999 12.2393M34.6666 23.3333V18.7869C34.6666 15.2428 32.1054 12.201 28.6185 11.567C26.9719 11.2676 25.3684 11.5438 23.9999 12.2393M23.9999 12.2393C21.655 13.431 19.9999 15.8538 19.9999 18.7214V22C19.9999 24.2091 21.7908 26 23.9999 26C26.2091 26 27.9999 24.2091 27.9999 22V18.7214C27.9999 15.8538 26.3448 13.431 23.9999 12.2393ZM15.5506 25.1933C14.9783 26.1472 14.7466 27.2672 14.8937 28.3699L15.6475 34.0234C15.8341 35.423 14.7453 36.6667 13.3332 36.6667C11.9212 36.6667 10.8324 35.423 11.019 34.0234L11.7728 28.3699C11.9199 27.2672 11.6882 26.1472 11.1159 25.1933C10.6247 24.3747 11.2144 23.3333 12.1689 23.3333H14.4976C15.4521 23.3333 16.0418 24.3747 15.5506 25.1933ZM36.884 25.1933C36.3116 26.1472 36.08 27.2672 36.227 28.3699L36.9808 34.0234C37.1674 35.423 36.0786 36.6667 34.6666 36.6667C33.2546 36.6667 32.1657 35.423 32.3524 34.0234L33.1062 28.3699C33.2532 27.2672 33.0216 26.1472 32.4492 25.1933C31.9581 24.3747 32.5477 23.3333 33.5023 23.3333H35.8309C36.7855 23.3333 37.3751 24.3747 36.884 25.1933Z" stroke="#D63D1C" stroke-width="3" stroke-linecap="round" stroke-linejoin="round"/>
</svg>
