<svg width="48" height="48" viewBox="0 0 48 48" fill="none" xmlns="http://www.w3.org/2000/svg">
<rect x="1.5" y="1.5" width="45" height="45" rx="22.5" stroke="#161616" stroke-width="3"/>
<path d="M14.6694 10.6667C18.2574 11.0854 26.5321 13.1947 30.1894 18.328C30.6388 18.9547 31.1094 19.4 31.8828 19.5947C32.8481 19.8347 33.6481 20.4827 33.9388 21.4614C34.2481 22.5254 34.8188 23.648 34.6374 24.7867C34.5681 25.2227 34.3548 25.624 33.9281 26.4267L28.1321 37.3334" stroke="#D63D1C" stroke-width="3" stroke-linecap="round" stroke-linejoin="round"/>
<path d="M13.3359 24C14.6693 26.3014 18.8879 27.4614 24.0026 26.3014C22.6463 27.0752 21.4349 28.0791 20.4226 29.268C19.6773 30.1294 19.3599 31.3267 19.3079 32.5374C19.2386 34.1534 18.9986 35.9107 18.1693 37.3334M14.6693 17.3334C14.6693 17.3334 17.2813 17.72 19.3359 19.3334C20.6693 20.3814 23.2239 21.08 24.0026 21.3334" stroke="#D63D1C" stroke-width="3" stroke-linecap="round" stroke-linejoin="round"/>
</svg>
