<svg width="21" height="20" viewBox="0 0 21 20" fill="none" xmlns="http://www.w3.org/2000/svg">
<path d="M7.99988 13.5L5.08322 10.5834C5.00695 10.5062 4.91611 10.4449 4.81598 10.4031C4.71585 10.3612 4.60841 10.3397 4.49988 10.3397C4.39136 10.3397 4.28392 10.3612 4.18379 10.4031C4.08365 10.4449 3.99282 10.5062 3.91655 10.5834C3.83935 10.6596 3.77806 10.7505 3.73623 10.8506C3.69439 10.9508 3.67285 11.0582 3.67285 11.1667C3.67285 11.2752 3.69439 11.3827 3.73623 11.4828C3.77806 11.5829 3.83935 11.6738 3.91655 11.75L7.40822 15.2417C7.73322 15.5667 8.25822 15.5667 8.58322 15.2417L17.4166 6.41671C17.4938 6.34044 17.555 6.24961 17.5969 6.14948C17.6387 6.04934 17.6603 5.9419 17.6603 5.83338C17.6603 5.72486 17.6387 5.61742 17.5969 5.51728C17.555 5.41715 17.4938 5.32632 17.4166 5.25005C17.3403 5.17285 17.2494 5.11155 17.1493 5.06972C17.0492 5.02789 16.9417 5.00635 16.8332 5.00635C16.7247 5.00635 16.6173 5.02789 16.5171 5.06972C16.417 5.11155 16.3262 5.17285 16.2499 5.25005L7.99988 13.5Z" fill="#D63D1C"/>
</svg>
