<svg width="32" height="32" viewBox="0 0 32 32" fill="none" xmlns="http://www.w3.org/2000/svg">
<path d="M12.4134 8.94686C12.2898 9.07021 12.1917 9.21673 12.1248 9.37803C12.0579 9.53932 12.0234 9.71223 12.0234 9.88686C12.0234 10.0615 12.0579 10.2344 12.1248 10.3957C12.1917 10.557 12.2898 10.7035 12.4134 10.8269L17.5867 16.0002L12.4134 21.1735C12.1641 21.4228 12.024 21.761 12.024 22.1135C12.024 22.4661 12.1641 22.8042 12.4134 23.0535C12.6627 23.3028 13.0008 23.4429 13.3534 23.4429C13.7059 23.4429 14.0441 23.3028 14.2934 23.0535L20.4134 16.9335C20.537 16.8102 20.635 16.6637 20.7019 16.5024C20.7688 16.3411 20.8033 16.1681 20.8033 15.9935C20.8033 15.8189 20.7688 15.646 20.7019 15.4847C20.635 15.3234 20.537 15.1769 20.4134 15.0535L14.2934 8.93353C13.7867 8.42686 12.9334 8.42686 12.4134 8.94686Z" fill="#161616"/>
</svg>
