<svg width="32" height="32" viewBox="0 0 32 32" fill="none" xmlns="http://www.w3.org/2000/svg">
<path d="M19.8802 8.94657C19.7568 8.82296 19.6103 8.7249 19.449 8.65799C19.2877 8.59108 19.1148 8.55664 18.9402 8.55664C18.7655 8.55664 18.5926 8.59108 18.4313 8.65799C18.27 8.7249 18.1235 8.82296 18.0002 8.94657L11.8802 15.0666C11.7566 15.1899 11.6585 15.3364 11.5916 15.4977C11.5247 15.659 11.4902 15.8319 11.4902 16.0066C11.4902 16.1812 11.5247 16.3541 11.5916 16.5154C11.6585 16.6767 11.7566 16.8232 11.8802 16.9466L18.0002 23.0666C18.1236 23.19 18.2702 23.2879 18.4314 23.3547C18.5927 23.4215 18.7656 23.4559 18.9402 23.4559C19.1147 23.4559 19.2876 23.4215 19.4489 23.3547C19.6102 23.2879 19.7567 23.19 19.8802 23.0666C20.0036 22.9431 20.1015 22.7966 20.1683 22.6353C20.2351 22.474 20.2695 22.3011 20.2695 22.1266C20.2695 21.952 20.2351 21.7791 20.1683 21.6178C20.1015 21.4566 20.0036 21.31 19.8802 21.1866L14.7068 15.9999L19.8802 10.8266C20.3868 10.3066 20.3868 9.45323 19.8802 8.94657Z" fill="#161616"/>
</svg>
