<svg width="48" height="48" viewBox="0 0 48 48" fill="none" xmlns="http://www.w3.org/2000/svg">
<rect x="1.5" y="1.5" width="45" height="45" rx="22.5" stroke="#161616" stroke-width="3"/>
<path d="M11.3335 26H36.6668M11.3335 26V23.6667M11.3335 26V28.3334M36.6668 26V23.6667M36.6668 26V28.3334M33.3335 26C33.3335 21.3333 28.6668 18.6663 24.0002 18.6667C19.3335 18.6671 14.6668 21.3332 14.6668 25.9998M22.0002 19C22.0002 23.6485 22.0002 30.6669 20.6668 37.3337H18.0002M26.0002 19C26.0002 23.6485 26.0002 30.6669 27.3335 37.3337H30.0002M26.6668 13.3333C26.6668 14.8061 25.4729 16 24.0001 16C22.5273 16.0001 21.3335 14.8062 21.3335 13.3334C21.3335 11.8606 22.5275 10.6667 24.0002 10.6667C25.473 10.6667 26.6669 11.8605 26.6668 13.3333Z" stroke="#D63D1C" stroke-width="3" stroke-linecap="round" stroke-linejoin="round"/>
</svg>
