<svg width="48" height="48" viewBox="0 0 48 48" fill="none" xmlns="http://www.w3.org/2000/svg">
<rect x="1.5" y="1.5" width="45" height="45" rx="22.5" stroke="#161616" stroke-width="3"/>
<path d="M35.3335 31.3332C30.6668 28.6662 25.3335 18.9296 24.0002 20.9296C22.6668 22.9296 22.0002 33.596 13.3335 36.9294C14.0002 34.9294 16.6668 26.9294 14.6668 21.5966M24.197 20.7334C22.197 21.4001 18.6668 26 13.3335 26M26.6668 22.6667C26.6668 26.6667 26.0002 30.6667 22.0002 28M24.6668 29.3333C30.0002 31.3333 42.0002 36.6667 22.6668 35.3333M29.3335 14.6667C29.3335 16.1394 28.1396 17.3333 26.6668 17.3333C25.1941 17.3333 24.0002 16.1394 24.0002 14.6667C24.0002 13.1939 25.1941 12 26.6668 12C28.1396 12 29.3335 13.1939 29.3335 14.6667Z" stroke="#D63D1C" stroke-width="3" stroke-linecap="round" stroke-linejoin="round"/>
</svg>
