<svg width="48" height="48" viewBox="0 0 48 48" fill="none" xmlns="http://www.w3.org/2000/svg">
<rect x="1.5" y="1.5" width="45" height="45" rx="22.5" stroke="#161616" stroke-width="3"/>
<path d="M11.2723 26.357C10.4913 25.576 10.4913 24.3096 11.2723 23.5286C12.0534 22.7475 13.3197 22.7475 14.1007 23.5286L24.4716 33.8995C25.2527 34.6805 25.2527 35.9469 24.4716 36.7279C23.6906 37.509 22.4243 37.509 21.6432 36.7279L11.2723 26.357Z" stroke="#D63D1C" stroke-width="3" stroke-linecap="round" stroke-linejoin="round"/>
<path d="M17.4006 26.8284L26.8287 17.4003L30.5999 21.1716L21.1718 30.5997L17.4006 26.8284Z" stroke="#D63D1C" stroke-width="3" stroke-linecap="round" stroke-linejoin="round"/>
<path d="M11.7437 32.4853C10.7023 31.4439 10.7023 29.7554 11.7437 28.714L12.6865 27.7712L20.229 35.3137L19.2862 36.2565C18.2448 37.2979 16.5563 37.2979 15.515 36.2565L11.7437 32.4853Z" stroke="#D63D1C" stroke-width="3" stroke-linecap="round" stroke-linejoin="round"/>
<path d="M26.3573 11.2721C25.5762 10.491 24.3099 10.491 23.5288 11.2721C22.7478 12.0531 22.7478 13.3194 23.5288 14.1005L33.8997 24.4714C34.6808 25.2524 35.9471 25.2524 36.7282 24.4714C37.5092 23.6903 37.5092 22.424 36.7282 21.643L26.3573 11.2721Z" stroke="#D63D1C" stroke-width="3" stroke-linecap="round" stroke-linejoin="round"/>
<path d="M32.4855 11.7435C31.4441 10.7021 29.7557 10.7021 28.7143 11.7435L27.7715 12.6863L35.3139 20.2288L36.2567 19.2859C37.2981 18.2445 37.2981 16.5561 36.2567 15.5147L32.4855 11.7435Z" stroke="#D63D1C" stroke-width="3" stroke-linecap="round" stroke-linejoin="round"/>
</svg>
