<svg width="48" height="48" viewBox="0 0 48 48" fill="none" xmlns="http://www.w3.org/2000/svg">
<rect x="1.5" y="1.5" width="45" height="45" rx="22.5" stroke="#161616" stroke-width="3"/>
<path d="M12 20.0005C25.3331 20.6667 30.6664 20.0005 35.9998 18.6667M21.9998 20.6667C21.9998 20.6667 21.7009 23.8729 21.9998 25.3334M26.6672 25.9999C18.0011 25.9999 15.3344 24.6667 16.0005 36.6662L13.3333 36.6661M26.6664 20.6667C25.9998 29.3334 29.5156 32.8831 33.3331 36.6667H30.6664M26.6665 14C26.6665 15.4727 25.4725 16.6667 23.9998 16.6667C22.527 16.6667 21.3331 15.4729 21.3332 14.0001C21.3332 12.5273 22.5271 11.3334 23.9999 11.3334C25.4726 11.3333 26.6665 12.5272 26.6665 14Z" stroke="#D63D1C" stroke-width="3" stroke-linecap="round" stroke-linejoin="round"/>
</svg>
